#N canvas 420 40 917 675 10;
#X obj 486 529 packOSC;
#X obj 549 124 unpackOSC;
#X obj 487 607 udpsend;
#X obj 275 353 +~;
#X obj 312 486 dac~;
#X obj 551 329 hsl 128 15 0 127 0 0 empty empty empty -2 -8 0 10 -262144
-1 -1 0 1;
#X obj 275 291 osc~ 440;
#X obj 290 317 phasor~ 200;
#X obj 275 389 lop~;
#X obj 314 372 mtof;
#X msg 547 584 disconnect;
#X msg 636 476 send /lowpass \$1;
#X msg 637 503 send /volume \$1;
#X obj 552 289 hsl 128 15 0 127 0 0 empty empty empty -2 -8 0 10 -262144
-1 -1 0 1;
#X obj 552 248 hsl 128 15 0 127 0 0 empty empty empty -2 -8 0 10 -262144
-1 -1 0 1;
#X obj 376 273 * 3;
#X obj 376 300 + 100;
#X obj 552 209 hsl 128 15 0 127 0 0 empty empty empty -2 -8 0 10 -262144
-1 -1 0 1;
#X obj 275 236 * 3;
#X obj 275 263 + 100;
#X msg 638 426 send /f1 \$1;
#X msg 636 453 send /f2 \$1;
#X text 699 330 volume;
#X text 699 289 filter;
#X text 699 247 freq 2;
#X text 699 209 freq 1;
#X obj 549 160 routeOSC /f1 /f2 /lowpass /volume;
#X obj 312 439 *~ 0.0001;
#X obj 368 398 / 1024;
#X obj 549 90 udpreceive 9996;
#X msg 546 549 connect localhost 9997;
#X connect 0 0 2 0;
#X connect 1 0 26 0;
#X connect 3 0 8 0;
#X connect 5 0 12 0;
#X connect 5 0 28 0;
#X connect 6 0 3 0;
#X connect 7 0 3 1;
#X connect 8 0 27 0;
#X connect 9 0 8 1;
#X connect 10 0 2 0;
#X connect 11 0 0 0;
#X connect 12 0 0 0;
#X connect 13 0 9 0;
#X connect 13 0 11 0;
#X connect 14 0 15 0;
#X connect 14 0 21 0;
#X connect 15 0 16 0;
#X connect 16 0 7 0;
#X connect 17 0 18 0;
#X connect 17 0 20 0;
#X connect 18 0 19 0;
#X connect 19 0 6 0;
#X connect 20 0 0 0;
#X connect 21 0 0 0;
#X connect 26 0 17 0;
#X connect 26 1 14 0;
#X connect 26 2 13 0;
#X connect 26 3 5 0;
#X connect 27 0 4 0;
#X connect 27 0 4 1;
#X connect 28 0 27 1;
#X connect 29 0 1 0;
#X connect 30 0 2 0;
