#N canvas 486 22 242 296 10;
#X obj 19 29 loadbang;
#X msg 19 53 expose oscquery 3455 6789, f 26;
#X obj 18 125 synth synth.1;
#X obj 20 78 ossia.device synth, f 20;
#N canvas 75 341 653 296 interface 1;
#X obj 15 260 ossia.view synth.1;
#X msg 15 231 bind synth.\$1;
#X floatatom 15 16 5 0 0 0 - - -, f 5;
#X text 66 16 choose synth number;
#X obj 150 122 ossia.remote cutoff/frequency;
#X floatatom 111 123 5 0 0 0 - - -, f 5;
#X obj 415 54 ossia.remote modulation/ratio;
#X obj 459 242 ossia.remote ramptime;
#X obj 415 81 ossia.remote modulation/index;
#X obj 114 56 ossia.remote carrier/frequency;
#X obj 111 176 ossia.remote gain, f 18;
#X floatatom 374 55 5 0 0 0 - - -, f 5;
#X floatatom 419 243 5 0 0 0 - - -, f 5;
#X floatatom 372 78 5 0 0 0 - - -, f 5;
#X floatatom 70 55 5 0 0 0 - - -, f 5;
#X floatatom 70 176 5 0 0 0 - - -, f 5;
#X obj 369 187 ossia.remote pan;
#X floatatom 327 189 5 0 0 0 - - -, f 5;
#X connect 1 0 0 0;
#X connect 2 0 1 0;
#X connect 4 0 5 0;
#X connect 5 0 4 0;
#X connect 6 0 11 0;
#X connect 7 0 12 0;
#X connect 8 0 13 0;
#X connect 9 0 14 0;
#X connect 10 0 15 0;
#X connect 11 0 6 0;
#X connect 12 0 7 0;
#X connect 13 0 8 0;
#X connect 14 0 9 0;
#X connect 15 0 10 0;
#X connect 16 0 17 0;
#X connect 17 0 16 0;
#X restore 123 152 pd interface;
#X obj 19 223 loadbang;
#X msg 18 246 \; pd dsp 1;
#X obj 18 144 synth synth.2;
#X obj 18 162 synth synth.3;
#X obj 17 181 synth synth.4;
#X connect 0 0 1 0;
#X connect 1 0 3 0;
#X connect 5 0 6 0;
#X coords 0 296 1 295 200 100 0;
