#N canvas 736 22 901 1001 10;
#X obj 364 318 osc~;
#X obj 363 241 line~;
#X obj 363 206 pack 0 100;
#X obj 364 372 *~, f 16;
#X obj 473 347 line~;
#X obj 473 310 pack 0 100;
#X obj 254 278 *~, f 16;
#X obj 105 49 ossia.parameter carrier/frequency @default 440 @type
hz @description Carrier frequency";
#X obj 253 240 line~;
#X obj 253 205 pack 0 100;
#X obj 107 405 osc~;
#X obj 105 241 line~;
#X obj 105 206 pack 0 100;
#X obj 113 920 dac~, f 8;
#X obj 430 151 ossia.parameter ramptime @default 20 @type ms @description
"Modulator frequency ramp time";
#X obj 303 562 line~;
#X obj 303 535 pack 0 100;
#X text 346 480 convert dBFs to Pd's dB \, 100dB Pd = 0dBFS;
#X obj 303 502 dbtorms;
#X obj 303 480 + 100;
#X obj 110 599 *~, f 28;
#X floatatom 365 409 5 0 0 0 - - -, f 5;
#X obj 228 667 + 1;
#X obj 229 700 / 8;
#X obj 276 690 ossia.remote ramptime;
#X obj 227 755 line~;
#X obj 227 728 pack 0 100;
#X obj 227 784 cos~;
#X obj 291 785 +~ 0.75;
#X obj 291 818 cos~;
#X obj 113 834 *~;
#X obj 167 882 *~;
#X obj 109 562 lop~;
#X obj 227 630 ossia.parameter pan @default 0 @type float @range -1
1 @clip both @description "Pan position", f 56;
#X obj 627 868 ossia.model \$1;
#X obj 363 110 ossia.parameter modulation/ratio @default 4 @range 0.01
100 @clip low @type float @description "Modulator frequency ratio"
, f 66;
#X obj 445 253 ossia.parameter modulation/index @default 10 @range
0 1000 @clip low @type float @description "Modulator frequency index"
, f 63;
#X obj 303 437 ossia.parameter gain @default -12 @range -100 12 @type
db @description "Main gain" @clip high, f 50;
#X obj 134 436 ossia.parameter cutoff/frequency @default 5000 @range
20 20000 @type hz @description "Cutoff filter frequency", f 22;
#X connect 0 0 3 0;
#X connect 1 0 6 1;
#X connect 2 0 1 0;
#X connect 3 0 10 0;
#X connect 4 0 3 1;
#X connect 5 0 4 0;
#X connect 6 0 0 0;
#X connect 7 0 9 0;
#X connect 7 0 12 0;
#X connect 8 0 6 0;
#X connect 9 0 8 0;
#X connect 10 0 32 0;
#X connect 11 0 10 0;
#X connect 12 0 11 0;
#X connect 14 0 2 1;
#X connect 14 0 5 1;
#X connect 14 0 9 1;
#X connect 14 0 12 1;
#X connect 15 0 20 1;
#X connect 16 0 15 0;
#X connect 18 0 16 0;
#X connect 19 0 18 0;
#X connect 20 0 30 0;
#X connect 20 0 31 0;
#X connect 21 0 37 0;
#X connect 22 0 23 0;
#X connect 23 0 26 0;
#X connect 24 1 26 1;
#X connect 25 0 27 0;
#X connect 25 0 28 0;
#X connect 26 0 25 0;
#X connect 27 0 30 1;
#X connect 28 0 29 0;
#X connect 29 0 31 1;
#X connect 30 0 13 0;
#X connect 31 0 13 1;
#X connect 32 0 20 0;
#X connect 33 0 22 0;
#X connect 35 0 2 0;
#X connect 36 0 5 0;
#X connect 37 0 19 0;
#X connect 38 0 32 1;
