#N canvas 542 363 450 300 10;
#X obj 159 156 i-score;
#X obj 159 57 openpanel;
#X msg 159 79 load \$1;
#X obj 175 114 tgl 15 0 empty empty play/stop 17 7 0 10 -262144 -1
-1 0 1;
#X obj 159 33 bng 15 250 50 0 empty empty empty 17 7 0 10 -262144 -1
-1;
#X connect 1 0 2 0;
#X connect 2 0 0 0;
#X connect 3 0 0 0;
#X connect 4 0 1 0;
