#N canvas -157 143 917 675 10;
#X obj 549 124 unpackOSC;
#X obj 275 353 +~;
#X obj 312 486 dac~;
#X obj 544 394 hsl 128 15 0 127 0 0 empty empty empty -2 -8 0 10 -262144
-1 -1 12700 1;
#X obj 275 291 osc~ 440;
#X obj 290 317 phasor~ 200;
#X obj 275 403 lop~;
#X obj 314 372 mtof;
#X obj 545 354 hsl 128 15 0 127 0 0 empty empty empty -2 -8 0 10 -262144
-1 -1 6350 1;
#X obj 545 313 hsl 128 15 0 127 0 0 empty empty empty -2 -8 0 10 -262144
-1 -1 2984 1;
#X obj 376 273 * 3;
#X obj 376 300 + 100;
#X obj 545 274 hsl 128 15 0 127 0 0 empty empty empty -2 -8 0 10 -262144
-1 -1 6350 1;
#X obj 275 236 * 3;
#X obj 275 263 + 100;
#X text 692 395 volume;
#X text 692 354 filter;
#X text 692 312 freq 2;
#X text 692 274 freq 1;
#X obj 549 90 udpreceive 9996;
#X obj 549 160 routeOSC /my_pos /my_color /my_int /my_float;
#X obj 312 439 *~ 0.01;
#X obj 368 398 / 127;
#X obj 274 377 sqrt~;
#X obj 573 198 unpack 0 0 0;
#X obj 443 184 unpack 0 0;
#X obj 607 225 * 127;
#X obj 571 223 * 127;
#X obj 791 211 / 100;
#X obj 795 237 * 127;
#X obj 731 237 * 127;
#X obj 730 208 / 25;
#X connect 0 0 20 0;
#X connect 1 0 23 0;
#X connect 3 0 22 0;
#X connect 4 0 1 0;
#X connect 5 0 1 1;
#X connect 6 0 21 0;
#X connect 7 0 6 1;
#X connect 8 0 7 0;
#X connect 9 0 10 0;
#X connect 10 0 11 0;
#X connect 11 0 5 0;
#X connect 12 0 13 0;
#X connect 13 0 14 0;
#X connect 14 0 4 0;
#X connect 19 0 0 0;
#X connect 20 0 25 0;
#X connect 20 1 24 0;
#X connect 20 2 31 0;
#X connect 20 3 28 0;
#X connect 21 0 2 0;
#X connect 21 0 2 1;
#X connect 22 0 21 1;
#X connect 23 0 6 0;
#X connect 24 0 27 0;
#X connect 24 1 26 0;
#X connect 25 0 27 0;
#X connect 25 1 26 0;
#X connect 26 0 9 0;
#X connect 27 0 12 0;
#X connect 28 0 29 0;
#X connect 29 0 8 0;
#X connect 30 0 3 0;
#X connect 31 0 30 0;
