#N canvas 106 43 686 666 10;
#X obj 325 65 unpackOSC;
#X obj 51 294 +~;
#X obj 88 427 dac~;
#X obj 320 335 hsl 128 15 0 127 0 0 empty empty empty -2 -8 0 10 -262144
-1 -1 0 1;
#X obj 51 232 osc~ 440;
#X obj 66 258 phasor~ 200;
#X obj 51 344 lop~;
#X obj 90 313 mtof;
#X obj 321 295 hsl 128 15 0 127 0 0 empty empty empty -2 -8 0 10 -262144
-1 -1 0 1;
#X obj 324 251 hsl 128 15 0 127 0 0 empty empty empty -2 -8 0 10 -262144
-1 -1 0 1;
#X obj 152 214 * 3;
#X obj 152 241 + 100;
#X obj 325 213 hsl 128 15 0 127 0 0 empty empty empty -2 -8 0 10 -262144
-1 -1 0 1;
#X obj 51 177 * 3;
#X obj 51 204 + 100;
#X text 468 336 volume;
#X text 468 295 filter;
#X text 468 253 freq 2;
#X text 468 215 freq 1;
#X obj 325 31 udpreceive 9996;
#X obj 325 101 routeOSC /my_pos /my_color /my_int /my_float;
#X obj 88 380 *~ 0.01;
#X obj 144 339 / 127;
#X obj 50 318 sqrt~;
#X obj 349 140 unpack 0 0 0;
#X obj 219 125 unpack 0 0;
#X obj 383 166 * 127;
#X obj 337 170 * 127;
#X obj 567 152 / 100;
#X obj 571 178 * 127;
#X obj 507 178 * 127;
#X obj 506 149 / 25;
#N canvas 36 657 447 163 install_externals 0;
#X text 26 84 - Then Go to Preferences > Path in the Pd Menu Press
the New Button Enter the address: /Users/[YourUserName]/Library/Pd/mrpeach
Now this should work, f 65;
#X text 26 30 - In the Help menu \, choose "Find Externals" There \,
enter mrpeach in the textfield \, press Show all click on the bold
text below (corresponding to your OS version), f 65;
#X restore 158 79 pd install_externals;
#X text 42 9 if those are not loaded -----> (dashed outline) follow
the instructions in the patcher below:;
#X obj 396 536 packOSC;
#X obj 397 614 udpsend;
#X msg 457 591 disconnect;
#X msg 389 477 send /my_int \$1;
#X msg 499 477 send /my_float \$1;
#X msg 233 570 connect localhost 9997;
#X obj 208 394 / 127;
#X obj 261 396 / 127;
#X obj 208 438 pack 0 0 0;
#X obj 282 438 pack 0 0;
#X obj 379 385 / 127;
#X obj 387 410 * 25;
#X obj 486 386 / 127;
#X obj 494 411 * 100;
#X floatatom 549 437 5 0 0 0 - - -, f 5;
#X msg 107 480 send /my_color \$1 \$2 \$3;
#X msg 266 479 send /my_pos \$1 \$2;
#X text 40 545 press this message ---> in order to be able to get values
into score;
#X connect 0 0 20 0;
#X connect 1 0 23 0;
#X connect 3 0 22 0;
#X connect 3 0 46 0;
#X connect 4 0 1 0;
#X connect 5 0 1 1;
#X connect 6 0 21 0;
#X connect 7 0 6 1;
#X connect 8 0 7 0;
#X connect 8 0 44 0;
#X connect 9 0 10 0;
#X connect 9 0 41 0;
#X connect 10 0 11 0;
#X connect 11 0 5 0;
#X connect 12 0 13 0;
#X connect 12 0 40 0;
#X connect 13 0 14 0;
#X connect 14 0 4 0;
#X connect 19 0 0 0;
#X connect 20 0 25 0;
#X connect 20 1 24 0;
#X connect 20 2 31 0;
#X connect 20 3 28 0;
#X connect 21 0 2 0;
#X connect 21 0 2 1;
#X connect 22 0 21 1;
#X connect 23 0 6 0;
#X connect 24 0 27 0;
#X connect 24 1 26 0;
#X connect 25 0 27 0;
#X connect 25 1 26 0;
#X connect 26 0 9 0;
#X connect 27 0 12 0;
#X connect 28 0 29 0;
#X connect 29 0 8 0;
#X connect 30 0 3 0;
#X connect 31 0 30 0;
#X connect 34 0 35 0;
#X connect 36 0 35 0;
#X connect 37 0 34 0;
#X connect 38 0 34 0;
#X connect 39 0 35 0;
#X connect 40 0 42 0;
#X connect 40 0 43 0;
#X connect 41 0 42 1;
#X connect 41 0 43 1;
#X connect 42 0 49 0;
#X connect 43 0 50 0;
#X connect 44 0 45 0;
#X connect 45 0 37 0;
#X connect 46 0 47 0;
#X connect 47 0 38 0;
#X connect 47 0 48 0;
#X connect 49 0 34 0;
#X connect 50 0 34 0;
