#N canvas 624 22 813 608 10;
#X msg 675 119 \; pd dsp 1;
#X obj 12 573 dac~, f 11;
#X msg 736 119 \; pd dsp 0;
#X obj 12 2 udpreceive 9996;
#X obj 12 23 unpackOSC;
#X obj 675 87 route /start /stop;
#X obj 137 250 osc~;
#X obj 219 200 line~;
#X obj 219 165 pack 0 100;
#X obj 137 278 *~, f 21;
#X obj 260 254 line~;
#X obj 260 232 pack 0 100;
#X obj 137 200 line~;
#X obj 137 165 pack 0 100;
#X obj 12 323 osc~;
#X obj 12 274 line~;
#X obj 12 239 pack 0 100;
#X obj 78 412 line~;
#X obj 78 385 pack 0 100;
#X text 121 330 convert dBFs to Pd's dB \, 100dB Pd = 0dBFS;
#X obj 78 352 dbtorms;
#X obj 78 330 + 100;
#X obj 457 307 + 1;
#X obj 458 340 / 8;
#X obj 456 395 line~;
#X obj 456 368 pack 0 100;
#X obj 456 424 cos~;
#X obj 517 418 +~ 0.75;
#X obj 517 444 cos~;
#X obj 12 530 *~;
#X obj 75 529 *~;
#X obj 12 457 *~;
#X obj 137 226 *~;
#X obj 12 48 route /carrier/frequency /modulation/ratio /modulation/index
/gain /pan /ramptime, f 111;
#X text 114 1 > Add the “mrpeach” extension in “Help > Find Externals”
;
#X floatatom 12 133 5 0 0 0 - - -, f 5;
#X floatatom 219 132 5 0 0 0 - - -, f 5;
#X floatatom 260 200 5 0 0 0 - - -, f 5;
#X floatatom 343 91 5 -80 3 0 - - -, f 5;
#X floatatom 456 260 5 0 0 0 - - -, f 5;
#X connect 3 0 4 0;
#X connect 4 0 33 0;
#X connect 5 0 0 0;
#X connect 5 1 2 0;
#X connect 6 0 9 0;
#X connect 7 0 32 1;
#X connect 8 0 7 0;
#X connect 9 0 14 0;
#X connect 10 0 9 1;
#X connect 11 0 10 0;
#X connect 12 0 32 0;
#X connect 13 0 12 0;
#X connect 14 0 31 0;
#X connect 15 0 14 0;
#X connect 16 0 15 0;
#X connect 17 0 31 1;
#X connect 18 0 17 0;
#X connect 20 0 18 0;
#X connect 21 0 20 0;
#X connect 22 0 23 0;
#X connect 23 0 25 0;
#X connect 24 0 26 0;
#X connect 24 0 27 0;
#X connect 25 0 24 0;
#X connect 26 0 29 1;
#X connect 27 0 28 0;
#X connect 28 0 30 1;
#X connect 29 0 1 0;
#X connect 30 0 1 1;
#X connect 31 0 29 0;
#X connect 31 0 30 0;
#X connect 32 0 6 0;
#X connect 33 0 35 0;
#X connect 33 1 36 0;
#X connect 33 2 37 0;
#X connect 33 3 38 0;
#X connect 33 4 39 0;
#X connect 33 5 8 1;
#X connect 33 5 11 1;
#X connect 33 5 16 1;
#X connect 33 5 13 1;
#X connect 33 5 25 1;
#X connect 33 6 5 0;
#X connect 35 0 16 0;
#X connect 35 0 13 0;
#X connect 36 0 8 0;
#X connect 37 0 11 0;
#X connect 38 0 21 0;
#X connect 39 0 22 0;
#X coords 0 608 1 607 200 100 0;
