#N canvas 225 79 632 393 10;
#X obj 26 61 loadbang;
#X obj 131 135 synth synth.1;
#X obj 27 110 ossia.device fmsynth;
#N canvas 75 341 653 296 interface 0;
#X obj 15 260 ossia.view synth.1;
#X msg 15 231 bind synth.\$1;
#X floatatom 15 16 5 0 0 0 - - -, f 5;
#X text 66 16 choose synth number;
#X obj 150 122 ossia.remote cutoff/frequency;
#X floatatom 111 123 5 0 0 0 - - -, f 5;
#X obj 415 54 ossia.remote modulation/ratio;
#X obj 459 242 ossia.remote ramptime;
#X obj 415 81 ossia.remote modulation/index;
#X obj 114 56 ossia.remote carrier/frequency;
#X obj 111 176 ossia.remote gain, f 18;
#X floatatom 374 55 5 0 0 0 - - -, f 5;
#X floatatom 419 243 5 0 0 0 - - -, f 5;
#X floatatom 372 78 5 0 0 0 - - -, f 5;
#X floatatom 70 55 5 0 0 0 - - -, f 5;
#X floatatom 70 176 5 0 0 0 - - -, f 5;
#X obj 369 187 ossia.remote pan;
#X floatatom 327 189 5 0 0 0 - - -, f 5;
#X connect 1 0 0 0;
#X connect 2 0 1 0;
#X connect 4 0 5 0;
#X connect 5 0 4 0;
#X connect 6 0 11 0;
#X connect 7 0 12 0;
#X connect 8 0 13 0;
#X connect 9 0 14 0;
#X connect 10 0 15 0;
#X connect 11 0 6 0;
#X connect 12 0 7 0;
#X connect 13 0 8 0;
#X connect 14 0 9 0;
#X connect 15 0 10 0;
#X connect 16 0 17 0;
#X connect 17 0 16 0;
#X restore 432 69 pd interface;
#X msg 260 313 \; pd dsp 1;
#X obj 237 135 synth synth.2;
#X obj 343 135 synth synth.3;
#X msg 26 85 expose oscquery 1234 5678, f 26;
#X obj 25 135 synth synth.0;
#X obj 260 274 ossia.param start @type impulse;
#X obj 346 298 ossia.param stop @type impulse;
#N canvas 603 244 557 427 proc 1;
#X obj 56 39 inlet~;
#X obj 153 39 inlet~;
#X obj 56 243 outlet~;
#X obj 152 246 outlet~;
#X obj 214 38 ossia.param master/gain @type float @default -6;
#X obj 56 150 *~;
#X obj 152 149 *~;
#X obj 214 94 dbtorms;
#X obj 214 72 + 100;
#X connect 0 0 5 0;
#X connect 1 0 6 0;
#X connect 4 0 8 0;
#X connect 5 0 2 0;
#X connect 6 0 3 0;
#X connect 7 0 6 1;
#X connect 7 0 5 1;
#X connect 8 0 7 0;
#X restore 24 176 pd proc;
#X obj 24 217 dac~, f 7;
#X msg 346 324 \; pd dsp 0;
#X connect 0 0 7 0;
#X connect 1 0 11 0;
#X connect 1 1 11 1;
#X connect 5 0 11 0;
#X connect 5 1 11 1;
#X connect 6 0 11 0;
#X connect 6 1 11 1;
#X connect 7 0 2 0;
#X connect 8 0 11 0;
#X connect 8 1 11 1;
#X connect 9 0 4 0;
#X connect 10 0 13 0;
#X connect 11 0 12 0;
#X connect 11 1 12 1;
#X coords 0 393 1 392 200 100 0;
